<mxfile host="app.diagrams.net" modified="2023-06-27T12:44:05.698Z" agent="Mozilla/5.0 (Windows NT 10.0; Win64; x64) AppleWebKit/537.36 (KHTML, like Gecko) Chrome/114.0.0.0 Safari/537.36" etag="NSStMqGtcKrcFuTkybwP" version="21.5.1" type="device">
  <diagram name="Page-1" id="AVtzSQadYqZzdnCCRWl5">
    <mxGraphModel dx="1050" dy="619" grid="1" gridSize="10" guides="1" tooltips="1" connect="1" arrows="1" fold="1" page="1" pageScale="1" pageWidth="850" pageHeight="1100" math="0" shadow="0">
      <root>
        <mxCell id="0" />
        <mxCell id="1" parent="0" />
        <mxCell id="vGo0uMPSuY0P_BOeBLmq-7" style="edgeStyle=orthogonalEdgeStyle;rounded=0;orthogonalLoop=1;jettySize=auto;html=1;" edge="1" parent="1" source="vGo0uMPSuY0P_BOeBLmq-1" target="vGo0uMPSuY0P_BOeBLmq-4">
          <mxGeometry relative="1" as="geometry" />
        </mxCell>
        <mxCell id="vGo0uMPSuY0P_BOeBLmq-1" value="START" style="ellipse;whiteSpace=wrap;html=1;" vertex="1" parent="1">
          <mxGeometry x="240" y="80" width="120" height="80" as="geometry" />
        </mxCell>
        <mxCell id="vGo0uMPSuY0P_BOeBLmq-8" style="edgeStyle=orthogonalEdgeStyle;rounded=0;orthogonalLoop=1;jettySize=auto;html=1;" edge="1" parent="1" source="vGo0uMPSuY0P_BOeBLmq-4" target="vGo0uMPSuY0P_BOeBLmq-6">
          <mxGeometry relative="1" as="geometry" />
        </mxCell>
        <mxCell id="vGo0uMPSuY0P_BOeBLmq-4" value="TAHUN" style="shape=parallelogram;perimeter=parallelogramPerimeter;whiteSpace=wrap;html=1;fixedSize=1;" vertex="1" parent="1">
          <mxGeometry x="240" y="200" width="120" height="60" as="geometry" />
        </mxCell>
        <mxCell id="vGo0uMPSuY0P_BOeBLmq-9" style="edgeStyle=orthogonalEdgeStyle;rounded=0;orthogonalLoop=1;jettySize=auto;html=1;" edge="1" parent="1" source="vGo0uMPSuY0P_BOeBLmq-6">
          <mxGeometry relative="1" as="geometry">
            <mxPoint x="410" y="350" as="targetPoint" />
          </mxGeometry>
        </mxCell>
        <mxCell id="vGo0uMPSuY0P_BOeBLmq-10" style="edgeStyle=orthogonalEdgeStyle;rounded=0;orthogonalLoop=1;jettySize=auto;html=1;" edge="1" parent="1" source="vGo0uMPSuY0P_BOeBLmq-6">
          <mxGeometry relative="1" as="geometry">
            <mxPoint x="300" y="450" as="targetPoint" />
          </mxGeometry>
        </mxCell>
        <mxCell id="vGo0uMPSuY0P_BOeBLmq-6" value="APAKAH&lt;br&gt;TAHUN / 4 = 0" style="rhombus;whiteSpace=wrap;html=1;rounded=0;" vertex="1" parent="1">
          <mxGeometry x="240" y="320" width="120" height="60" as="geometry" />
        </mxCell>
        <mxCell id="vGo0uMPSuY0P_BOeBLmq-11" value="YA" style="text;html=1;strokeColor=none;fillColor=none;align=center;verticalAlign=middle;whiteSpace=wrap;rounded=0;" vertex="1" parent="1">
          <mxGeometry x="360" y="320" width="60" height="30" as="geometry" />
        </mxCell>
        <mxCell id="vGo0uMPSuY0P_BOeBLmq-12" value="TIDAK" style="text;html=1;strokeColor=none;fillColor=none;align=center;verticalAlign=middle;whiteSpace=wrap;rounded=0;" vertex="1" parent="1">
          <mxGeometry x="300" y="400" width="60" height="30" as="geometry" />
        </mxCell>
        <mxCell id="vGo0uMPSuY0P_BOeBLmq-16" value="" style="edgeStyle=orthogonalEdgeStyle;rounded=0;orthogonalLoop=1;jettySize=auto;html=1;" edge="1" parent="1" source="vGo0uMPSuY0P_BOeBLmq-13" target="vGo0uMPSuY0P_BOeBLmq-15">
          <mxGeometry relative="1" as="geometry" />
        </mxCell>
        <mxCell id="vGo0uMPSuY0P_BOeBLmq-13" value="BUKAN KABISAT" style="shape=parallelogram;perimeter=parallelogramPerimeter;whiteSpace=wrap;html=1;fixedSize=1;" vertex="1" parent="1">
          <mxGeometry x="240" y="450" width="120" height="60" as="geometry" />
        </mxCell>
        <mxCell id="vGo0uMPSuY0P_BOeBLmq-17" value="" style="edgeStyle=orthogonalEdgeStyle;rounded=0;orthogonalLoop=1;jettySize=auto;html=1;" edge="1" parent="1" source="vGo0uMPSuY0P_BOeBLmq-14" target="vGo0uMPSuY0P_BOeBLmq-15">
          <mxGeometry relative="1" as="geometry" />
        </mxCell>
        <mxCell id="vGo0uMPSuY0P_BOeBLmq-14" value="KABISAT" style="shape=parallelogram;perimeter=parallelogramPerimeter;whiteSpace=wrap;html=1;fixedSize=1;" vertex="1" parent="1">
          <mxGeometry x="410" y="320" width="120" height="60" as="geometry" />
        </mxCell>
        <mxCell id="vGo0uMPSuY0P_BOeBLmq-15" value="SELESAI" style="ellipse;whiteSpace=wrap;html=1;" vertex="1" parent="1">
          <mxGeometry x="410" y="440" width="120" height="80" as="geometry" />
        </mxCell>
      </root>
    </mxGraphModel>
  </diagram>
</mxfile>
